<svg xmlns="http://www.w3.org/2000/svg" viewBox="0 0 1527 512"><rect x="56" y="56" width="400" height="400" rx="40" fill="none" stroke="#111111" stroke-width="10"/><line x1="56" y1="120" x2="456" y2="120" stroke="#111111" stroke-width="8"/><circle cx="94.0" cy="88.0" r="8.5" fill="#111111"/><circle cx="121.2" cy="88.0" r="8.5" fill="#111111"/><circle cx="148.4" cy="88.0" r="8.5" fill="#111111"/><defs><clipPath id="t"><rect x="0" y="0" width="512" height="241.1"/></clipPath>
<clipPath id="b"><rect x="0" y="327.4" width="512" height="600"/></clipPath></defs>
<path d="M217.148 216.545V358.525Q217.148 366.895 219.00799999999998 371.08Q220.868 375.265 225.983 376.65999999999997Q231.098 378.055 241.01799999999997 378.055H271.08799999999997Q290.308 378.055 301.778 366.58500000000004Q313.248 355.115 316.96799999999996 335.895Q316.96799999999996 335.895 316.96799999999996 335.585Q317.58799999999997 334.96500000000003 318.828 335.275Q320.378 335.585 320.378 336.515Q319.448 345.195 318.518 357.44Q317.58799999999997 369.685 317.58799999999997 380.225Q317.58799999999997 384.875 312.938 384.875H169.09799999999998Q168.47799999999998 384.875 168.47799999999998 383.015Q168.47799999999998 381.155 169.09799999999998 381.155Q180.25799999999998 381.155 185.683 379.605Q191.108 378.055 193.123 373.405Q195.13799999999998 368.755 195.13799999999998 359.765V216.235Q195.13799999999998 207.245 193.123 202.75Q191.108 198.255 185.683 196.55Q180.25799999999998 194.845 169.09799999999998 194.845Q168.47799999999998 194.845 168.47799999999998 192.985Q168.47799999999998 191.125 169.09799999999998 191.125Q176.53799999999998 191.125 186.14799999999997 191.59Q195.75799999999998 192.055 205.988 192.055Q216.838 192.055 226.293 191.59Q235.748 191.125 243.188 191.125Q243.808 191.125 243.808 192.985Q243.808 194.845 243.188 194.845Q232.028 194.845 226.603 196.55Q221.178 198.255 219.163 202.905Q217.148 207.555 217.148 216.545Z" fill="#111111" clip-path="url(#t)"/><path d="M217.148 216.545V358.525Q217.148 366.895 219.00799999999998 371.08Q220.868 375.265 225.983 376.65999999999997Q231.098 378.055 241.01799999999997 378.055H271.08799999999997Q290.308 378.055 301.778 366.58500000000004Q313.248 355.115 316.96799999999996 335.895Q316.96799999999996 335.895 316.96799999999996 335.585Q317.58799999999997 334.96500000000003 318.828 335.275Q320.378 335.585 320.378 336.515Q319.448 345.195 318.518 357.44Q317.58799999999997 369.685 317.58799999999997 380.225Q317.58799999999997 384.875 312.938 384.875H169.09799999999998Q168.47799999999998 384.875 168.47799999999998 383.015Q168.47799999999998 381.155 169.09799999999998 381.155Q180.25799999999998 381.155 185.683 379.605Q191.108 378.055 193.123 373.405Q195.13799999999998 368.755 195.13799999999998 359.765V216.235Q195.13799999999998 207.245 193.123 202.75Q191.108 198.255 185.683 196.55Q180.25799999999998 194.845 169.09799999999998 194.845Q168.47799999999998 194.845 168.47799999999998 192.985Q168.47799999999998 191.125 169.09799999999998 191.125Q176.53799999999998 191.125 186.14799999999997 191.59Q195.75799999999998 192.055 205.988 192.055Q216.838 192.055 226.293 191.59Q235.748 191.125 243.188 191.125Q243.808 191.125 243.808 192.985Q243.808 194.845 243.188 194.845Q232.028 194.845 226.603 196.55Q221.178 198.255 219.163 202.905Q217.148 207.555 217.148 216.545Z" fill="#111111" clip-path="url(#b)"/>
<path d="M235.17 314.413Q233.73 314.413 230.514 310.813Q227.298 307.213 222.786 300.397Q218.56199999999998 294.06100000000004 213.378 285.421Q212.322 285.517 211.17 285.517H208.482Q207.042 285.517 205.89 285.421V306.637Q205.89 309.421 206.37 310.861Q206.85 312.301 208.29 312.781Q209.73 313.261 212.706 313.261Q212.898 313.261 212.898 313.837Q212.898 314.413 212.706 314.413Q210.20999999999998 314.413 207.13799999999998 314.317Q204.066 314.221 200.418 314.221Q196.962 314.221 193.84199999999998 314.317Q190.72199999999998 314.413 188.226 314.413Q187.938 314.413 187.938 313.837Q187.938 313.261 188.226 313.261Q191.202 313.261 192.642 312.781Q194.082 312.301 194.61 310.861Q195.138 309.421 195.138 306.637V262.189Q195.138 259.40500000000003 194.65800000000002 258.01300000000003Q194.178 256.621 192.738 256.09299999999996Q191.298 255.565 188.322 255.565Q188.13 255.565 188.13 254.989Q188.13 254.413 188.322 254.413Q190.81799999999998 254.413 193.89 254.55700000000002Q196.962 254.70100000000002 200.418 254.70100000000002Q203.58599999999998 254.70100000000002 207.378 254.413Q211.17 254.125 214.53 254.125Q223.362 254.125 228.11399999999998 257.341Q232.86599999999999 260.557 232.86599999999999 266.317Q232.86599999999999 271.981 229.69799999999998 276.301Q226.81799999999998 280.42900000000003 222.30599999999998 282.733Q229.41 293.389 234.594 300.01300000000003Q239.97 307.021 244.19400000000002 310.141Q248.418 313.261 252.25799999999998 313.261Q252.45 313.261 252.45 313.837Q252.45 314.413 252.25799999999998 314.413ZM221.922 269.96500000000003Q221.922 264.301 220.76999999999998 261.325Q219.618 258.349 217.60199999999998 257.245Q215.58599999999998 256.141 212.994 256.141Q209.154 256.141 207.522 257.581Q205.89 259.021 205.89 262.38100000000003V282.733Q207.23399999999998 282.925 208.76999999999998 283.021Q210.30599999999998 283.117 211.458 283.117Q217.12199999999999 283.117 219.522 279.997Q221.922 276.877 221.922 269.96500000000003ZM343.33 254.413Q343.522 254.413 343.522 254.989Q343.522 255.565 343.33 255.565Q339.778 255.565 336.658 258.589Q333.538 261.613 331.522 266.89300000000003L313.762 314.317Q313.666 314.701 312.754 314.701Q311.842 314.701 311.65 314.317L299.362 288.301L289.666 314.317Q289.57 314.701 288.658 314.701Q287.746 314.701 287.554 314.317L263.074 262.38100000000003Q261.73 259.50100000000003 260.77 258.06100000000004Q259.81 256.621 258.706 256.09299999999996Q257.602 255.565 255.778 255.565Q255.49 255.565 255.49 254.989Q255.49 254.413 255.778 254.413Q256.93 254.413 257.554 254.50900000000001Q258.178 254.60500000000002 259.28200000000004 254.65300000000002Q260.386 254.70100000000002 262.786 254.70100000000002Q267.106 254.70100000000002 269.65 254.65300000000002Q272.194 254.60500000000002 273.826 254.50900000000001Q275.458 254.413 276.706 254.413Q276.994 254.413 276.994 254.989Q276.994 255.565 276.706 255.565Q272.77 255.565 272.38599999999997 257.149Q272.002 258.733 274.498 264.10900000000004L291.778 300.781L297.826 284.94100000000003L287.17 262.38100000000003Q285.634 259.213 284.194 257.389Q282.754 255.565 281.026 255.565Q280.738 255.565 280.738 254.989Q280.738 254.413 281.026 254.413Q281.986 254.413 282.562 254.50900000000001Q283.138 254.60500000000002 284.04999999999995 254.65300000000002Q284.962 254.70100000000002 286.978 254.70100000000002Q292.354 254.70100000000002 294.706 254.55700000000002Q297.058 254.413 298.594 254.413Q298.882 254.413 298.882 254.989Q298.882 255.565 298.594 255.565Q296.77 255.565 296.194 256.42900000000003Q296.002 256.717 296.098 257.101Q296.098 258.733 298.594 264.10900000000004L302.818 273.03700000000003L305.218 266.605Q307.426 260.94100000000003 307.378 258.25300000000004Q307.33 255.565 304.93 255.565Q304.642 255.565 304.642 254.989Q304.642 254.413 304.93 254.413Q305.89 254.413 306.178 254.50900000000001Q306.466 254.60500000000002 307.37800000000004 254.65300000000002Q308.29 254.70100000000002 311.17 254.70100000000002Q313.57 254.70100000000002 315.058 254.55700000000002Q316.546 254.413 318.658 254.413Q318.85 254.413 318.85 254.989Q318.85 255.565 318.658 255.565Q315.394 255.565 312.802 258.34900000000005Q310.21 261.13300000000004 308.002 266.89300000000003L304.45 276.397L315.97 300.685L328.354 267.565Q330.274 262.38100000000003 328.978 258.973Q327.682 255.565 324.034 255.565Q323.746 255.565 323.746 254.989Q323.746 254.413 324.034 254.413Q326.53 254.413 328.882 254.55700000000002Q331.23400000000004 254.70100000000002 334.786 254.70100000000002Q337.474 254.70100000000002 339.202 254.55700000000002Q340.93 254.413 343.33 254.413Z" fill="#111111"/><path d="M590.5061218261719 180.55V249.25Q590.5061218261719 253.06938781738282 591.2092559814453 254.97908172607424Q591.9123901367187 256.88877563476564 594.0259740542059 257.530029296875Q596.1395579716931 258.17128295898436 600.2524780273437 258.17128295898436H609.230322265625Q619.8989807128906 258.17128295898436 627.2526245117188 252.16005859375Q634.6062683105469 246.14883422851562 637.0024780273437 236.1851318359375Q637.1112243652344 235.7351318359375 637.8818511962891 235.8645050048828Q638.6524780273437 235.99387817382814 638.6524780273437 236.44387817382812Q638.2024780273438 241.1051025390625 637.7524780273438 247.64874443641077Q637.3024780273438 254.192386333759 637.3024780273438 259.75Q637.3024780273438 262.0 635.0112688887747 262.0H564.7475219726563Q564.4475219726562 262.0 564.4475219726562 261.1Q564.4475219726562 260.2 564.7475219726563 260.2Q569.6581946212254 260.2 572.1135309455101 259.45Q574.5688672697946 258.7 575.4088507491551 256.45Q576.2488342285156 254.2 576.2488342285156 249.85V180.4Q576.2488342285156 176.05 575.4088507491551 173.875Q574.5688672697946 171.7 572.1135309455101 170.875Q569.6581946212254 170.05 564.7475219726563 170.05Q564.4475219726562 170.05 564.4475219726562 169.15Q564.4475219726562 168.25 564.7475219726563 168.25Q568.3475219726563 168.25 573.1831481445313 168.475Q578.0187743164063 168.7 583.2641993164062 168.7Q588.8374633789062 168.7 593.5363184859114 168.475Q598.2351735929163 168.25 601.8986877441406 168.25Q602.3074340820312 168.25 602.3074340820312 169.15Q602.3074340820312 170.05 601.8986877441406 170.05Q597.0344461162439 170.05 594.6023253022954 170.875Q592.170204488347 171.7 591.3381631572595 173.95Q590.5061218261719 176.2 590.5061218261719 180.55ZM670.5 263.65Q662.55 263.65 657.9749999999999 258.54999999999995Q653.4 253.45 653.4 244.9V222.55Q653.4 217.3 652.275 214.825Q651.15 212.35 648.75 212.35Q646.9499999999999 212.35 644.55 213.55Q643.9499999999999 213.7 643.65 212.8Q643.35 212.2 643.5 211.9Q643.65 211.9 643.65 211.75L662.55 202.9Q663.0 202.75 663.3 202.75Q663.9 202.75 664.65 203.35Q665.4 203.95 665.4 204.4V238.45Q665.4 246.85 668.4749999999999 250.975Q671.55 255.1 677.85 255.1Q682.65 255.1 687.6 252.25Q690.4499999999999 250.6 692.6999999999999 248.35V222.55Q692.6999999999999 217.3 691.65 214.825Q690.6 212.35 688.05 212.35Q686.25 212.35 683.85 213.55Q683.25 213.7 682.9499999999999 212.8Q682.65 212.2 682.9499999999999 211.9Q682.9499999999999 211.9 683.1 211.75L702.0 202.9Q702.3 202.75 702.6 202.75Q703.35 202.75 704.025 203.35Q704.6999999999999 203.95 704.6999999999999 204.4V245.05Q704.6999999999999 250.15 705.75 252.325Q706.8 254.5 709.35 254.5Q710.55 254.5 712.2 253.975Q713.85 253.45 716.1 252.7Q716.6999999999999 252.4 717.15 253.22500000000002Q717.6 254.05 717.0 254.35L697.35 263.8Q697.05 263.95 696.75 263.95Q695.4 263.95 694.05 260.35Q692.85 257.05 692.6999999999999 251.35Q688.65 256.0 684.3 259.15Q677.85 263.65 670.5 263.65ZM753.25 263.8Q742.9 263.8 736.3 259.375Q729.6999999999999 254.95 726.4749999999999 248.05Q723.25 241.15 723.25 234.1Q723.25 226.6 726.325 220.75Q729.4 214.9 734.5 210.925Q739.5999999999999 206.95 745.675 204.85Q751.75 202.75 757.75 202.75Q762.0999999999999 202.75 766.3 203.95Q770.5 205.15 773.275 207.55Q776.05 209.95 776.05 213.25Q776.05 215.65 774.25 217.525Q772.4499999999999 219.4 768.8499999999999 219.4Q765.55 219.4 763.675 217.675Q761.8 215.95 760.5999999999999 212.8Q759.4 209.5 757.75 207.7Q756.0999999999999 205.9 752.1999999999999 205.9Q745.0 205.9 740.95 212.425Q736.9 218.95 736.9 229.3Q736.9 236.95 739.2249999999999 243.25Q741.55 249.55 746.8 253.375Q752.05 257.2 760.75 257.2Q765.0999999999999 257.2 768.4749999999999 256.15Q771.8499999999999 255.1 775.4499999999999 252.85Q775.5999999999999 252.85 775.5999999999999 252.85Q775.9 252.7 776.3499999999999 253.15Q776.8 253.75 776.5 254.05Q771.25 258.85 765.775 261.32500000000005Q760.3 263.8 753.25 263.8ZM848.0 204.1Q848.3 204.1 848.3 205.0Q848.3 205.9 848.0 205.9Q843.3499999999999 205.9 840.125 209.65Q836.9 213.4 834.3499999999999 220.45L817.0999999999999 266.2Q811.6999999999999 280.6 806.675 288.925Q801.65 297.25 796.4749999999999 300.7Q791.3 304.15 785.4499999999999 304.15Q781.4 304.15 779.0 302.42499999999995Q776.5999999999999 300.7 776.5999999999999 297.25Q776.5999999999999 294.25 778.55 292.675Q780.5 291.1 783.05 291.1Q785.5999999999999 291.1 787.175 292.07500000000005Q788.75 293.05 790.175 294.025Q791.5999999999999 295.0 794.0 295.0Q797.75 295.0 800.825 291.775Q803.9 288.55 807.5 280.9Q810.5 274.6 814.4 264.25L790.8499999999999 216.55Q787.55 209.95 785.675 207.925Q783.8 205.9 780.9499999999999 205.9Q780.65 205.9 780.65 205.0Q780.65 204.1 780.9499999999999 204.1Q783.8 204.1 786.875 204.25Q789.9499999999999 204.4 792.8 204.4Q798.05 204.4 802.025 204.25Q806.0 204.1 809.15 204.1Q809.5999999999999 204.1 809.5999999999999 205.0Q809.5999999999999 205.9 809.15 205.9Q804.05 205.9 802.175 207.10000000000002Q800.3 208.3 802.0999999999999 211.75L820.4 249.55L830.5999999999999 220.45Q833.0 213.25 830.75 209.575Q828.5 205.9 821.75 205.9Q821.4499999999999 205.9 821.4499999999999 205.0Q821.4499999999999 204.1 821.75 204.1Q825.3499999999999 204.1 828.5749999999999 204.25Q831.8 204.4 836.9 204.4Q840.3499999999999 204.4 842.5999999999999 204.25Q844.8499999999999 204.1 848.0 204.1ZM964.6 262.0Q962.35 262.0 957.1 256.3Q951.85 250.6 944.35 239.95Q937.6 229.9 929.05 216.25Q926.5 216.7 923.8 216.7Q922.0 216.7 919.9 216.625Q917.8 216.55 916.15 216.4V249.85Q916.15 254.2 916.9 256.45Q917.65 258.7 920.125 259.45Q922.6 260.2 927.4 260.2Q927.85 260.2 927.85 261.1Q927.85 262.0 927.4 262.0Q923.65 262.0 919.0 261.85Q914.35 261.7 908.8 261.7Q903.55 261.7 898.75 261.85Q893.9499999999999 262.0 890.1999999999999 262.0Q889.75 262.0 889.75 261.1Q889.75 260.2 890.1999999999999 260.2Q895.15 260.2 897.55 259.45Q899.9499999999999 258.7 900.8499999999999 256.45Q901.75 254.2 901.75 249.85V180.4Q901.75 176.05 900.925 173.875Q900.1 171.7 897.7 170.875Q895.3 170.05 890.35 170.05Q890.05 170.05 890.05 169.15Q890.05 168.25 890.35 168.25Q894.1 168.25 898.825 168.475Q903.55 168.7 908.8 168.7Q913.6 168.7 919.6 168.25Q925.6 167.8 930.55 167.8Q943.6 167.8 950.725 172.97500000000002Q957.85 178.15 957.85 187.15Q957.85 195.7 952.9 202.45Q948.25 208.75 941.05 212.5Q952.4499999999999 229.45 960.6999999999999 239.8Q969.25 250.6 975.925 255.39999999999998Q982.6 260.2 988.75 260.2Q989.05 260.2 989.05 261.1Q989.05 262.0 988.75 262.0ZM943.0 192.4Q943.0 183.7 940.9749999999999 178.975Q938.9499999999999 174.25 935.3499999999999 172.45Q931.75 170.65 926.9499999999999 170.65Q921.1 170.65 918.625 172.825Q916.15 175.0 916.15 180.7V212.35Q918.25 212.65 920.65 212.8Q923.05 212.95 924.85 212.95Q934.9 212.95 938.95 207.925Q943.0 202.9 943.0 192.4ZM1003.7112243652343 263.65Q999.9237609863281 263.65 997.6756561279296 261.4429119110107Q995.4275512695312 259.2358238220215 995.4275512695312 255.45224424089704Q995.4275512695312 251.8788635253906 997.6756561279296 249.72638549804685Q999.9237609863281 247.57390747070312 1003.6818334631017 247.57390747070312Q1007.6486877441406 247.57390747070312 1009.6924194335937 249.72638549804685Q1011.7361511230469 251.8788635253906 1011.7361511230469 255.45224424089704Q1011.7361511230469 259.2358238220215 1009.6784775954027 261.4429119110107Q1007.6208040677584 263.65 1003.7112243652343 263.65ZM1194.4 168.25Q1194.7 168.25 1194.7 169.15Q1194.7 170.05 1194.4 170.05Q1189.15 170.05 1184.65 174.025Q1180.15 178.0 1177.0 185.8L1147.9 261.85Q1147.75 262.45 1146.325 262.45Q1144.9 262.45 1144.6000000000001 261.85L1125.25 220.45L1109.5 261.85Q1109.3500000000001 262.45 1107.9250000000002 262.45Q1106.5 262.45 1106.2 261.85L1068.25 180.7Q1066.3 176.35000000000002 1064.725 174.10000000000002Q1063.15 171.85000000000002 1061.275 170.95000000000002Q1059.4 170.05 1056.4 170.05Q1055.95 170.05 1055.95 169.15Q1055.95 168.25 1056.4 168.25Q1058.3500000000001 168.25 1059.625 168.4Q1060.9 168.55 1062.775 168.625Q1064.65 168.7 1067.8 168.7Q1073.8 168.7 1077.475 168.625Q1081.15 168.55 1083.7 168.4Q1086.25 168.25 1088.2 168.25Q1088.65 168.25 1088.65 169.15Q1088.65 170.05 1088.2 170.05Q1082.2 170.05 1081.075 172.375Q1079.95 174.7 1083.4 182.2L1112.2 243.55L1123.0 215.65L1106.65 180.7Q1104.25 175.45 1101.85 172.75Q1099.45 170.05 1096.15 170.05Q1095.7 170.05 1095.7 169.15Q1095.7 168.25 1096.15 168.25Q1097.8 168.25 1099.075 168.4Q1100.3500000000001 168.55 1101.9250000000002 168.625Q1103.5 168.7 1106.3500000000001 168.7Q1113.55 168.7 1116.925 168.475Q1120.3 168.25 1122.7 168.25Q1123.15 168.25 1123.15 169.15Q1123.15 170.05 1122.7 170.05Q1118.5 170.05 1118.35 172.22500000000002Q1118.2 174.4 1121.8 182.2L1130.05 199.45L1135.45 185.2Q1138.6000000000001 177.25 1138.2250000000001 173.65Q1137.8500000000001 170.05 1133.65 170.05Q1133.2 170.05 1133.2 169.15Q1133.2 168.25 1133.65 168.25Q1135.15 168.25 1135.825 168.4Q1136.5 168.55 1138.0 168.625Q1139.5 168.7 1143.4 168.7Q1147.3 168.7 1149.7 168.475Q1152.1000000000001 168.25 1155.55 168.25Q1155.8500000000001 168.25 1155.8500000000001 169.15Q1155.8500000000001 170.05 1155.55 170.05Q1150.6000000000001 170.05 1146.625 173.72500000000002Q1142.65 177.4 1139.5 185.8L1132.3 204.25L1150.75 243.4L1172.65 186.25Q1175.3500000000001 178.9 1173.25 174.47500000000002Q1171.15 170.05 1164.7 170.05Q1164.25 170.05 1164.25 169.15Q1164.25 168.25 1164.7 168.25Q1168.6000000000001 168.25 1172.125 168.475Q1175.65 168.7 1181.05 168.7Q1185.25 168.7 1187.95 168.475Q1190.65 168.25 1194.4 168.25ZM1201.25 262.0Q1200.8000000000002 262.0 1200.8000000000002 261.1Q1200.8000000000002 260.2 1201.25 260.2Q1206.3500000000001 260.2 1208.0750000000003 258.1Q1209.8000000000002 256.0 1209.8000000000002 249.85V222.55Q1209.8000000000002 217.45 1208.75 215.125Q1207.7 212.8 1205.15 212.8Q1203.95 212.8 1202.45 213.25Q1200.95 213.7 1199.15 214.6Q1198.5500000000002 214.75 1198.1000000000001 213.85Q1197.8000000000002 213.25 1198.1000000000001 212.95Q1198.1000000000001 212.8 1198.25 212.8L1219.8500000000001 202.75Q1220.15 202.6 1220.3000000000002 202.6Q1220.9 202.6 1221.575 203.27499999999998Q1222.25 203.95 1222.25 204.4Q1222.25 206.05 1222.1 210.4Q1221.95 214.75 1221.95 222.4V249.85Q1221.95 256.0 1223.6750000000002 258.1Q1225.4 260.2 1230.5 260.2Q1230.95 260.2 1230.95 261.1Q1230.95 262.0 1230.5 262.0Q1227.5 262.0 1223.75 261.85Q1220.0 261.7 1215.8000000000002 261.7Q1211.75 261.7 1207.9250000000002 261.85Q1204.1000000000001 262.0 1201.25 262.0ZM1215.0500000000002 186.85000000000002Q1211.15 186.85000000000002 1208.9750000000001 184.75Q1206.8000000000002 182.65 1206.8000000000002 178.75Q1206.8000000000002 175.15 1208.9750000000001 173.05Q1211.15 170.95 1215.0500000000002 170.95Q1218.8000000000002 170.95 1220.8250000000003 173.05Q1222.8500000000001 175.15 1222.8500000000001 178.75Q1222.8500000000001 186.85000000000002 1215.0500000000002 186.85000000000002ZM1241.1000000000001 262.0Q1240.65 262.0 1240.65 261.1Q1240.65 260.2 1241.1000000000001 260.2Q1246.0500000000002 260.2 1247.8500000000001 258.1Q1249.65 256.0 1249.65 249.85V173.2Q1249.65 167.95 1248.75 165.625Q1247.8500000000001 163.3 1245.3000000000002 163.3Q1243.2000000000003 163.3 1239.15 165.10000000000002Q1238.7000000000003 165.25 1238.2500000000002 164.35000000000002Q1237.8000000000002 163.60000000000002 1238.1000000000001 163.45Q1238.1000000000001 163.3 1238.1000000000001 163.3L1259.2500000000002 153.4Q1259.5500000000002 153.25 1259.8500000000001 153.25Q1260.4500000000003 153.25 1261.2000000000003 153.85Q1261.9500000000003 154.45 1261.9500000000003 154.9V249.85Q1261.9500000000003 256.0 1263.6750000000002 258.1Q1265.4 260.2 1270.5000000000002 260.2Q1270.9500000000003 260.2 1270.9500000000003 261.1Q1270.9500000000003 262.0 1270.5000000000002 262.0Q1267.65 262.0 1263.8250000000003 261.85Q1260.0000000000002 261.7 1255.8000000000002 261.7Q1251.6000000000001 261.7 1247.775 261.85Q1243.9500000000003 262.0 1241.1000000000001 262.0ZM1293.092419433594 211.96005859375Q1293.092419433594 215.35758056640626 1294.8999267578126 217.915087890625Q1296.7074340820313 220.47259521484375 1299.5518218994143 222.4563415527344Q1302.396209716797 224.440087890625 1305.6287170410158 226.3488342285156Q1309.4199707031253 228.36632690429687 1312.978717041016 230.6500732421875Q1316.5374633789065 232.93381958007814 1318.896209716797 236.15131225585938Q1321.2549560546877 239.36880493164062 1321.2549560546877 244.4950439453125Q1321.2549560546877 249.2950439453125 1318.8005828857424 253.72565612792968Q1316.3462097167971 258.15626831054686 1311.458090209961 260.9031341552734Q1306.5699707031251 263.65 1299.276239013672 263.65Q1295.5674926757815 263.65 1291.9 262.78374633789065Q1288.232507324219 261.91749267578126 1284.0887756347659 259.4349853515625Q1283.788775634766 259.1349853515625 1283.4887756347657 258.6849853515625Q1283.1887756347658 258.2349853515625 1283.1887756347658 257.6349853515625L1282.8887756347658 243.89883422851562Q1282.8887756347658 243.44883422851564 1283.7137756347659 243.37383422851565Q1284.538775634766 243.29883422851563 1284.6887756347658 243.640087890625Q1286.4212829589846 248.52259521484376 1289.3181488037112 252.40007324218752Q1292.2150146484378 256.2775512695313 1295.8956268310549 258.4844024658203Q1299.576239013672 260.6912536621094 1303.5174926757813 260.6912536621094Q1307.136297607422 260.6912536621094 1309.3131927490235 258.6512390136719Q1311.490087890625 256.61122436523436 1311.4075805664065 252.42244873046874Q1311.366326904297 248.1811950683594 1309.429446411133 245.42682189941405Q1307.492565917969 242.67244873046874 1304.5600585937502 240.7093292236328Q1301.6275512695315 238.74620971679687 1298.5037902832032 237.09620971679686Q1294.9712829589846 235.18746337890624 1291.5419097900394 233.10809020996095Q1288.112536621094 231.02871704101562 1285.8831634521487 227.8243438720703Q1283.6537902832033 224.619970703125 1283.6537902832033 219.45247802734374Q1283.6537902832033 213.31749267578124 1286.762536621094 209.58811950683594Q1289.8712829589845 205.85874633789064 1294.7725219726562 204.16749267578126Q1299.6737609863283 202.4762390136719 1304.9500000000003 202.4762390136719Q1308.0849853515626 202.4762390136719 1310.839358520508 202.94686584472657Q1313.5937316894533 203.41749267578126 1316.9049560546878 204.7262390136719Q1318.2549560546877 205.21749267578124 1318.2549560546877 206.37623901367186Q1318.2549560546877 209.169970703125 1318.1049560546876 212.2093292236328Q1317.9549560546877 215.24868774414062 1317.9549560546877 218.9011657714844Q1317.9549560546877 219.309912109375 1317.0549560546879 219.309912109375Q1316.1549560546878 219.309912109375 1316.1549560546878 218.9011657714844Q1316.1549560546878 215.8861511230469 1313.7887023925782 212.79241943359375Q1311.422448730469 209.6986877441406 1307.7343292236328 207.53309020996093Q1304.046209716797 205.36749267578125 1299.9437316894532 205.36749267578125Q1297.3074340820315 205.36749267578125 1295.1999267578126 206.70626831054688Q1293.092419433594 208.0450439453125 1293.092419433594 211.96005859375ZM1363.1112243652344 263.95Q1353.826239013672 263.95 1347.0293731689453 259.6Q1340.232507324219 255.25 1336.5443878173828 247.975Q1332.856268310547 240.7 1332.856268310547 232.3Q1332.856268310547 224.5 1335.8150146484377 218.8Q1338.7737609863282 213.1 1343.661880493164 209.425Q1348.5500000000002 205.75 1354.3174926757815 203.95Q1360.0849853515626 202.15 1365.702478027344 202.15Q1375.1374633789064 202.15 1381.8593292236328 206.65Q1388.5811950683594 211.15 1392.13994140625 218.2Q1395.6986877441407 225.25 1395.6986877441407 233.15874633789062Q1395.6986877441407 242.43250732421876 1391.1855682373048 249.38688049316406Q1386.672448730469 256.34125366210935 1379.2755828857423 260.14562683105464Q1371.8787170410158 263.95 1363.1112243652344 263.95ZM1367.5287170410159 260.92376098632815Q1374.1887756347658 260.92376098632815 1377.7663269042969 255.1356414794922Q1381.3438781738282 249.34752197265624 1381.3438781738282 238.03746337890624Q1381.3438781738282 227.58250732421874 1378.4657440185547 220.2737609863281Q1375.5876098632814 212.9650146484375 1370.8869537353517 209.09125366210935Q1366.186297607422 205.21749267578124 1360.6437316894533 205.21749267578124Q1354.0511657714844 205.21749267578124 1350.5017486572267 210.65313415527345Q1346.952331542969 216.08877563476562 1346.952331542969 227.080029296875Q1346.952331542969 236.90874633789062 1349.6467193603517 244.61311950683591Q1352.3411071777346 252.31749267578124 1357.0211364746096 256.62062683105466Q1361.7011657714845 260.92376098632815 1367.5287170410159 260.92376098632815ZM1448.2500000000002 262.0Q1447.8000000000002 262.0 1447.8000000000002 261.1Q1447.8000000000002 260.2 1448.2500000000002 260.2Q1453.3500000000001 260.2 1455.0000000000002 258.1Q1456.6500000000003 256.0 1456.6500000000003 249.85V227.35Q1456.6500000000003 218.95 1453.5750000000003 214.975Q1450.5000000000002 211.0 1443.9000000000003 211.0Q1439.1000000000001 211.0 1434.0000000000002 213.55Q1431.0000000000002 215.2 1428.4500000000003 217.6V249.85Q1428.4500000000003 256.0 1430.1750000000002 258.1Q1431.9000000000003 260.2 1437.0000000000002 260.2Q1437.4500000000003 260.2 1437.4500000000003 261.1Q1437.4500000000003 262.0 1437.0000000000002 262.0Q1434.1500000000003 262.0 1430.4000000000003 261.85Q1426.6500000000003 261.7 1422.4500000000003 261.7Q1418.4000000000003 261.7 1414.5750000000003 261.85Q1410.7500000000002 262.0 1407.9000000000003 262.0Q1407.4500000000003 262.0 1407.4500000000003 261.1Q1407.4500000000003 260.2 1407.9000000000003 260.2Q1413.0000000000002 260.2 1414.65 258.1Q1416.3000000000002 256.0 1416.3000000000002 249.85V221.2Q1416.3000000000002 216.4 1415.2500000000002 214.15Q1414.2000000000003 211.9 1411.5000000000002 211.9Q1410.1500000000003 211.9 1408.2000000000003 212.5Q1406.2500000000002 213.1 1404.0000000000002 214.15Q1403.7000000000003 214.15 1403.5500000000002 214.15Q1403.2500000000002 214.0 1403.1000000000001 213.55Q1402.6500000000003 212.65 1403.1000000000001 212.5L1422.7500000000002 202.9Q1423.5000000000002 202.6 1423.8000000000002 202.6Q1425.3000000000002 202.6 1426.8000000000002 206.05Q1428.3000000000002 209.2 1428.4500000000003 214.75Q1432.6500000000003 209.8 1437.3000000000002 206.65Q1443.9000000000003 202.3 1451.4000000000003 202.3Q1459.8000000000002 202.3 1464.3000000000002 207.325Q1468.8000000000002 212.35 1468.8000000000002 220.9V249.85Q1468.8000000000002 256.0 1470.525 258.1Q1472.2500000000002 260.2 1477.3500000000001 260.2Q1477.8000000000002 260.2 1477.8000000000002 261.1Q1477.8000000000002 262.0 1477.3500000000001 262.0Q1474.5000000000002 262.0 1470.7500000000002 261.85Q1467.0000000000002 261.7 1462.8000000000002 261.7Q1458.7500000000002 261.7 1454.9250000000002 261.85Q1451.1000000000001 262.0 1448.2500000000002 262.0Z" fill="#111111"/><path d="M574.8335888671875 345.0 566.3655981445313 317.0H570.3590087890625L576.9674951171875 338.93561767578126L583.3645141601562 317.0H587.3005883789062L593.6178784179688 338.8094775390625L600.30609375 317.0H604.2995043945313L595.6888500976562 345.0H591.4898413085938L585.3325512695312 323.33264404296875L579.03259765625 345.0ZM613.42130859375 345.0V317.0H630.2981494140626V320.6043359375H617.3688500976563V328.90690673828124H628.994130859375V332.45390625H617.3688500976563V341.3956640625H630.3784204101562V345.0ZM642.2613085937501 345.0V317.0H651.2855981445313Q654.1485327148438 317.0 656.2173364257812 317.88Q658.2861401367188 318.76 659.4234765625001 320.485869140625Q660.5608129882813 322.21173828125 660.5608129882813 324.709345703125Q660.5608129882813 326.6455981445313 659.6696166992188 328.14239257812505Q658.7784204101563 329.6391870117188 657.1560278320313 330.5935888671875Q659.2242895507812 331.5935888671875 660.3384204101562 333.270654296875Q661.4525512695312 334.9477197265625 661.4525512695312 337.27918701171876Q661.4525512695312 339.7309252929688 660.35521484375 341.4625280761719Q659.2578784179688 343.194130859375 657.2490747070312 344.0970654296875Q655.2402709960937 345.0 652.4573364257812 345.0ZM646.151513671875 341.44740234375H652.2050561523438Q654.6663647460938 341.44740234375 656.0598181152344 340.27087890625Q657.453271484375 339.09435546875 657.453271484375 337.06130859375Q657.453271484375 334.8570654296875 655.8600891113281 333.6264111328125Q654.2669067382812 332.3957568359375 651.4346728515625 332.3957568359375H646.151513671875ZM646.151513671875 329.0266357421875H651.9069067382812Q654.0999536132813 329.0266357421875 655.3422106933594 327.873046875Q656.5844677734375 326.7194580078125 656.5844677734375 324.67494384765627Q656.5844677734375 322.5733642578125 655.1424816894531 321.43404174804687Q653.7004956054687 320.29471923828123 651.1365234375 320.29471923828123H646.151513671875ZM686.8613085937501 345.0V317.0H695.5079907226562Q699.5373364257813 317.0 702.6350793457032 318.7857336425781Q705.732822265625 320.57146728515625 707.4902941894532 323.7257336425781Q709.2477661132813 326.88 709.2477661132813 331.0Q709.2477661132813 335.08 707.4902941894532 338.24Q705.732822265625 341.4 702.6350793457032 343.2Q699.5373364257813 345.0 695.5079907226562 345.0ZM690.8088500976563 341.33832763671876H695.5079907226562Q697.5533178710938 341.33832763671876 699.3186450195312 340.5472668457031Q701.0839721679688 339.7562060546875 702.4207666015625 338.3368835449219Q703.7575610351563 336.91756103515627 704.500224609375 335.03837402343754Q705.2428881835938 333.15918701171876 705.2428881835938 331.0Q705.2428881835938 328.84081298828124 704.500224609375 326.96162597656246Q703.7575610351563 325.08243896484373 702.4207666015625 323.6631164550781Q701.0839721679688 322.2437939453125 699.3186450195312 321.4527331542969Q697.5533178710938 320.66167236328124 695.5079907226562 320.66167236328124H690.8088500976563ZM719.7013085937501 345.0V317.0H736.5781494140626V320.6043359375H723.6488500976564V328.90690673828124H735.2741308593751V332.45390625H723.6488500976564V341.3956640625H736.6584204101563V345.0ZM757.5994580078126 345.48Q755.3541308593751 345.48 753.5454626464846 344.9685327148437Q751.7367944335939 344.4570654296875 750.3822570800783 343.554130859375Q749.0277197265626 342.6511962890625 748.1561169433595 341.53106079101565Q747.2845141601564 340.4109252929687 746.9133178710939 339.16505615234377L750.7352612304688 337.92397216796877Q751.3235229492188 339.55169189453125 753.0024389648438 340.7652807617187Q754.6813549804689 341.97886962890624 757.1370654296876 342.0018041992187Q760.0831591796876 342.013271484375 761.7848742675783 340.8168835449219Q763.4865893554688 339.62049560546876 763.4865893554688 337.6674487304688Q763.4865893554688 335.8746728515625 762.0022106933595 334.741083984375Q760.5178320312501 333.6074951171875 758.0682617187501 332.9851025390625L754.8383740234376 332.1618969726562Q752.9066357421876 331.6589624023438 751.3381030273439 330.68442504882813Q749.7695703125002 329.7098876953125 748.849705810547 328.22961669921875Q747.9298413085938 326.749345703125 747.9298413085938 324.69787841796875Q747.9298413085938 320.8346728515625 750.427313232422 318.6773364257813Q752.9247851562501 316.52 757.6279907226564 316.52Q760.3535888671876 316.52 762.3593225097657 317.38546264648437Q764.3650561523439 318.25092529296876 765.6538598632814 319.65385986328124Q766.9426635742188 321.0567944335937 767.5032055664063 322.73200927734376L763.7212622070314 323.99602783203125Q763.0362060546876 322.1973828125 761.3887573242189 321.0977893066406Q759.7413085937501 319.9981958007813 757.3426635742188 319.9981958007813Q754.8413549804689 319.9981958007813 753.3880371093751 321.1973828125Q751.9347192382813 322.3965698242188 751.9347192382813 324.46961669921876Q751.9347192382813 326.2453271484375 753.0768408203126 327.18478515625Q754.2189624023439 328.1242431640625 756.1093457031251 328.6039721679688L759.3507006835939 329.3986450195313Q763.2925512695314 330.34130859375 765.4206774902345 332.56717773437504Q767.5488037109376 334.793046875 767.5488037109376 337.42212158203125Q767.5488037109376 339.72559814453126 766.4172009277345 341.54573364257817Q765.2855981445314 343.365869140625 763.0682617187501 344.4229345703125Q760.8509252929689 345.48 757.5994580078126 345.48ZM778.2213085937501 345.0V317.0H782.1688500976563V345.0ZM807.2106542968751 345.48Q802.9477197265626 345.48 799.6562524414063 343.62Q796.36478515625 341.76 794.4990515136719 338.5Q792.6333178710938 335.24 792.6333178710938 331.0285327148438Q792.6333178710938 326.76 794.4990515136719 323.5Q796.36478515625 320.24 799.6562524414063 318.38Q802.9477197265626 316.52 807.2106542968751 316.52Q809.5370654296876 316.52 811.674266357422 317.2629345703125Q813.8114672851564 318.005869140625 815.5398645019532 319.3002709960938Q817.2682617187501 320.5946728515625 818.3597290039063 322.2805419921875L815.1956640625001 324.379775390625Q814.40740234375 323.12885009765625 813.1194116210938 322.16352294921876Q811.8314208984376 321.19819580078126 810.2978320312501 320.6612658691406Q808.7642431640626 320.1243359375 807.2106542968751 320.1243359375Q804.1320092773439 320.1243359375 801.7473596191408 321.5180603027344Q799.3627099609375 322.91178466796873 798.0004528808595 325.3593688964844Q796.6381958007813 327.806953125 796.6381958007813 331.0285327148438Q796.6381958007813 334.18157958984375 797.9889855957032 336.6406311035156Q799.339775390625 339.0996826171875 801.7416259765625 340.499140625Q804.1434765625 341.8985986328125 807.2679907226564 341.8985986328125Q809.763701171875 341.8985986328125 811.7226171875001 340.8764770507812Q813.6815332031251 339.85435546875 814.8209912109376 338.02424316406245Q815.9604492187501 336.194130859375 816.0177856445313 333.8072241210937H809.2300659179688V330.5183740234375H819.8279907226563V333.3829345703125Q819.7935888671876 337.05200927734376 818.1706542968751 339.7748083496094Q816.5477197265626 342.497607421875 813.7134533691408 343.98880371093753Q810.8791870117188 345.48 807.2106542968751 345.48ZM829.9013085937502 345.0V317.0H833.9635229492188L849.8196826171876 338.448935546875V317.0H853.7672241210939V345.0H849.8196826171876L833.8488500976564 323.36198974609374V345.0ZM887.8000000000002 345.56Q885.4000000000001 345.56 883.5400000000002 344.62Q881.6800000000002 343.68 880.6000000000001 342.0Q879.5200000000001 340.32 879.5200000000001 338.2Q879.5200000000001 336.48 880.1800000000001 335.12Q880.8400000000001 333.76 881.94 332.62Q883.0400000000001 331.48 884.3600000000001 330.56L885.6400000000001 329.68L885.0400000000001 328.96Q884.0800000000002 327.72 883.3600000000001 326.72Q882.6400000000001 325.72 882.2600000000001 324.74Q881.8800000000001 323.76 881.8800000000001 322.72Q881.8800000000001 320.92 882.8000000000002 319.5Q883.7200000000001 318.08 885.3000000000002 317.26Q886.8800000000001 316.44 888.8000000000002 316.44Q890.9200000000002 316.44 892.6000000000001 317.24Q894.2800000000001 318.04 895.2400000000001 319.48Q896.2000000000002 320.92 896.2000000000002 322.84Q896.2000000000002 324.44 895.3600000000001 325.82Q894.5200000000001 327.2 893.0400000000001 328.48Q892.0400000000001 329.36 890.8400000000001 330.24L893.0800000000002 332.96L896.6000000000001 337.24Q896.7600000000001 336.96 896.8800000000001 336.68Q897.6400000000001 334.92 897.6400000000001 332.76H901.3200000000002Q901.3200000000002 336.48 899.6000000000001 339.4Q899.3600000000001 339.8 899.0800000000002 340.2L903.0000000000001 345.0H898.3600000000001L896.5600000000002 342.8Q895.7600000000001 343.44 894.8000000000002 343.92Q891.7600000000001 345.56 887.8000000000002 345.56ZM887.8400000000001 332.32 886.7200000000001 333.12Q885.8800000000001 333.68 885.1400000000001 334.38Q884.4000000000001 335.08 883.94 335.96Q883.4800000000001 336.84 883.4800000000001 338.12Q883.4800000000001 339.92 884.7200000000001 341.06Q885.9600000000002 342.2 887.9600000000002 342.2Q889.9200000000002 342.2 891.6800000000002 341.56Q893.1200000000001 341.0 894.2800000000001 340.08L890.0800000000002 335.04ZM888.6400000000001 327.64Q889.4400000000002 327.04 890.2800000000001 326.44Q891.2000000000002 325.72 891.8600000000001 324.82000000000005Q892.5200000000001 323.92 892.5200000000001 322.8Q892.5200000000001 321.36 891.5000000000001 320.52Q890.4800000000001 319.68 888.9200000000002 319.68Q887.5600000000002 319.68 886.6000000000001 320.56Q885.6400000000001 321.44 885.6400000000001 322.76Q885.6400000000001 323.88 886.3400000000001 324.78Q887.0400000000001 325.68 888.0400000000001 326.92ZM926.9813085937502 345.0V317.0H935.6279907226564Q939.6573364257814 317.0 942.7550793457033 318.7857336425781Q945.8528222656252 320.57146728515625 947.6102941894533 323.7257336425781Q949.3677661132814 326.88 949.3677661132814 331.0Q949.3677661132814 335.08 947.6102941894533 338.24Q945.8528222656252 341.4 942.7550793457033 343.2Q939.6573364257814 345.0 935.6279907226564 345.0ZM930.9288500976564 341.33832763671876H935.6279907226564Q937.6733178710939 341.33832763671876 939.4386450195314 340.5472668457031Q941.2039721679689 339.7562060546875 942.5407666015626 338.3368835449219Q943.8775610351564 336.91756103515627 944.6202246093751 335.03837402343754Q945.3628881835939 333.15918701171876 945.3628881835939 331.0Q945.3628881835939 328.84081298828124 944.6202246093751 326.96162597656246Q943.8775610351564 325.08243896484373 942.5407666015626 323.6631164550781Q941.2039721679689 322.2437939453125 939.4386450195314 321.4527331542969Q937.6733178710939 320.66167236328124 935.6279907226564 320.66167236328124H930.9288500976564ZM959.8213085937502 345.0V317.0H976.6981494140628V320.6043359375H963.7688500976565V328.90690673828124H975.3941308593752V332.45390625H963.7688500976565V341.3956640625H976.7784204101564V345.0ZM996.9589160156253 345.0 985.4855981445315 317.0H989.662214355469L999.1328222656252 340.4340380859375L1008.580495605469 317.0H1012.7856445312502L1001.3067285156252 345.0ZM1021.9013085937503 345.0V317.0H1038.7781494140627V320.6043359375H1025.8488500976564V328.90690673828124H1037.4741308593752V332.45390625H1025.8488500976564V341.3956640625H1038.8584204101564V345.0ZM1050.7413085937503 345.0V317.0H1054.6888500976565V341.3956640625H1067.6640185546878V345.0ZM1089.046140136719 345.48Q1084.9645050048832 345.48 1081.8105142211916 343.6342663574219Q1078.6565234375003 341.78853271484377 1076.8649206542973 338.5160153465372Q1075.073317871094 335.24349797823066 1075.073317871094 331.0131706484686Q1075.073317871094 326.7429345703125 1076.8506542968753 323.4829345703125Q1078.6279907226567 320.2229345703125 1081.7454626464846 318.37720092773435Q1084.8629345703127 316.5314672851562 1088.942947900391 316.5314672851562Q1093.022961230469 316.5314672851562 1096.1550926757816 318.39146728515624Q1099.2872241210941 320.25146728515625 1101.0502941894536 323.51146728515624Q1102.813364257813 326.77146728515623 1102.813364257813 331.01146728515624Q1102.813364257813 335.24246334273727 1101.0560278320318 338.5154980287905Q1099.2986914062503 341.78853271484377 1096.1981214658679 343.6342663574219Q1093.0975515254854 345.48 1089.046140136719 345.48ZM1089.0494165039065 341.8756640625Q1091.9182293701176 341.8756640625 1094.1152316284183 340.4819396972656Q1096.312233886719 339.08821533203127 1097.5603601074222 336.63997583007813Q1098.8084863281254 334.191736328125 1098.8084863281254 331.01081201171877Q1098.8084863281254 327.8298876953125 1097.5388409371665 325.3785165958848Q1096.2691955462076 322.9271454964571 1094.0563850076792 321.5314743595567Q1091.843574469151 320.13580322265625 1088.941527861245 320.13580322265625Q1086.075756835938 320.13580322265625 1083.8459640708493 321.5307968675453Q1081.6161713057606 322.9257905124344 1080.3471835532712 325.37597165794466Q1079.0781958007817 327.826152803455 1079.0781958007817 331.0095998392275Q1079.0781958007817 334.193046875 1080.3520556640628 336.6406311035156Q1081.6259155273442 339.08821533203127 1083.885102539063 340.4819396972656Q1086.1442895507817 341.8756640625 1089.0494165039065 341.8756640625ZM1113.2613085937503 345.0V317.0H1122.721354980469Q1125.510020141602 317.0 1127.6648977661134 318.1401354980469Q1129.8197753906252 319.28027099609375 1131.0285791015626 321.30964099271796Q1132.2373828125003 323.3390109893422 1132.2373828125003 325.98961669921874Q1132.2373828125003 328.6083350670856 1131.1141772460942 330.6451160198709Q1129.9909716796878 332.68189697265626 1128.0235166713173 333.8420324707031Q1126.0560616629466 335.00216796875 1123.4917382812503 335.00216796875H1117.2088500976565V345.0ZM1117.2088500976565 331.3692993164062H1123.434401855469Q1125.5535888671877 331.3692993164062 1126.907313232422 329.871159853392Q1128.2610375976565 328.37302039037775 1128.2610375976565 325.98961669921874Q1128.2610375976565 323.5797480745136 1126.693317871094 322.08630836342866Q1125.1255981445315 320.5928686523437 1122.6640185546878 320.5928686523437H1117.2088500976565ZM1141.9013085937504 345.0V317.0H1146.0781958007817L1155.3490747070316 330.7092529296875L1164.591420898438 317.0H1168.768308105469V345.0H1164.8207666015628V323.304111328125L1155.332009277344 337.3741772460937L1145.8488500976566 323.3611767578125V345.0ZM1181.0613085937505 345.0V317.0H1197.938149414063V320.6043359375H1185.0088500976567V328.90690673828124H1196.6341308593755V332.45390625H1185.0088500976567V341.3956640625H1198.0184204101568V345.0ZM1209.9013085937504 345.0V317.0H1213.9635229492192L1229.819682617188 338.448935546875V317.0H1233.7672241210942V345.0H1229.819682617188L1213.8488500976566 323.36198974609374V345.0ZM1251.7762524414068 345.0V320.6043359375H1243.0002709960943V317.0H1264.4883081054693V320.6043359375H1255.723793945313V345.0Z" fill="#111111"/></svg>